<?xml version="1.0" standalone="no"?>
<!DOCTYPE svg PUBLIC "-//W3C//DTD SVG 20010904//EN"
 "http://www.w3.org/TR/2001/REC-SVG-20010904/DTD/svg10.dtd">
<svg version="1.0" xmlns="http://www.w3.org/2000/svg"
 width="866.000000pt" height="360.000000pt" viewBox="0 0 866.000000 360.000000"
 preserveAspectRatio="xMidYMid meet">

<g transform="translate(0.000000,360.000000) scale(0.100000,-0.100000)"
fill="#C40000" stroke="none">
<path d="M7707 2279 c-15 -9 -8 -22 64 -109 45 -55 86 -97 92 -93 5 3 7 1 4
-4 -4 -6 2 -22 13 -36 11 -14 20 -27 20 -30 0 -3 -41 -28 -92 -57 l-91 -52
-66 21 c-112 35 -137 24 -65 -30 57 -42 74 -77 74 -151 0 -89 26 -75 63 36
l22 67 90 39 c49 22 94 40 101 40 7 0 27 -63 49 -152 21 -84 40 -156 42 -161
2 -4 13 -3 23 3 12 6 20 26 25 59 5 37 13 54 31 66 29 19 31 45 4 52 -25 7
-26 40 -1 48 30 9 33 33 8 50 -20 13 -22 21 -17 62 5 48 5 48 79 88 84 45 122
86 105 113 -19 30 -67 26 -149 -15 l-76 -37 -45 23 c-37 20 -44 29 -44 53 0
29 -1 30 -41 23 l-41 -7 7 30 c8 37 -7 48 -45 32 -25 -10 -34 -9 -73 14 -50
30 -46 29 -70 15z"/>
<path d="M4800 1930 c0 -20 15 -25 44 -14 28 11 18 34 -14 34 -23 0 -30 -4
-30 -20z"/>
<path d="M4930 1935 c0 -10 10 -15 30 -15 20 0 30 5 30 15 0 10 -10 15 -30 15
-20 0 -30 -5 -30 -15z"/>
<path d="M4693 1933 c-14 -3 -23 -12 -23 -22 0 -14 6 -17 30 -13 21 3 30 10
30 23 0 11 -3 18 -7 18 -5 -1 -18 -4 -30 -6z"/>
<path d="M5060 1926 c0 -16 41 -29 53 -17 14 14 -2 31 -29 31 -14 0 -24 -6
-24 -14z"/>
<path d="M5185 1910 c-9 -14 11 -30 37 -30 16 0 34 17 26 25 -11 12 -57 15
-63 5z"/>
<path d="M4563 1900 c-39 -16 -25 -44 15 -33 13 3 22 13 22 24 0 21 -4 22 -37
9z"/>
<path d="M5310 1866 c0 -12 28 -25 53 -26 14 0 7 28 -9 34 -26 10 -44 7 -44
-8z"/>
<path d="M4434 1846 c-12 -10 -16 -18 -9 -24 14 -14 55 4 55 23 0 19 -20 19
-46 1z"/>
<path d="M731 1838 c-104 -29 -171 -122 -171 -236 0 -84 31 -139 145 -252 l95
-95 95 95 c115 114 145 167 145 254 -1 166 -151 280 -309 234z m140 -88 c76
-39 105 -123 67 -198 -30 -61 -77 -92 -137 -92 -157 0 -212 216 -73 290 48 25
93 25 143 0z"/>
<path d="M5433 1825 c-7 -19 -5 -22 30 -30 36 -9 37 17 2 33 -21 10 -27 9 -32
-3z"/>
<path d="M7552 1792 c-12 -8 -22 -18 -22 -23 0 -13 34 -11 52 4 27 20 -1 38
-30 19z"/>
<path d="M4325 1779 c-4 -6 -5 -12 -2 -15 7 -7 37 7 37 17 0 13 -27 11 -35 -2z"/>
<path d="M5546 1765 c-6 -17 29 -39 50 -31 21 8 17 21 -11 34 -32 15 -32 15
-39 -3z"/>
<path d="M1943 1733 c-26 -10 -13 -33 17 -33 23 0 30 4 30 20 0 20 -19 25 -47
13z"/>
<path d="M2060 1725 c0 -12 8 -16 33 -13 17 2 32 8 32 13 0 6 -15 11 -32 13
-25 3 -33 -1 -33 -13z"/>
<path d="M2195 1730 c-3 -5 -3 -14 0 -20 9 -15 52 -12 58 4 9 22 -45 37 -58
16z"/>
<path d="M4213 1722 c-15 -11 -20 -21 -14 -31 7 -11 13 -10 35 4 21 14 24 20
15 31 -14 17 -9 17 -36 -4z"/>
<path d="M7427 1728 c-10 -8 -14 -18 -8 -26 6 -10 13 -11 35 -1 27 13 30 32 5
37 -8 1 -22 -3 -32 -10z"/>
<path d="M1807 1713 c-15 -14 -6 -33 16 -33 29 0 51 15 43 29 -8 12 -49 15
-59 4z"/>
<path d="M2322 1703 c4 -22 48 -30 59 -11 9 14 -11 26 -44 27 -12 1 -17 -5
-15 -16z"/>
<path d="M5664 1708 c-8 -12 21 -38 43 -38 19 0 16 20 -4 36 -22 17 -30 17
-39 2z"/>
<path d="M1702 1691 c-13 -3 -23 -9 -23 -13 1 -5 1 -13 1 -19 0 -10 48 -5 58
6 12 11 -16 31 -36 26z"/>
<path d="M2450 1675 c0 -9 12 -20 26 -25 34 -13 34 -13 34 9 0 11 -9 21 -22
25 -34 9 -38 8 -38 -9z"/>
<path d="M7313 1677 c-16 -9 -20 -16 -13 -27 7 -11 13 -12 35 -2 15 7 25 18
23 24 -6 17 -20 19 -45 5z"/>
<path d="M1573 1650 c-39 -16 -25 -44 15 -33 13 3 22 13 22 24 0 21 -4 22 -37
9z"/>
<path d="M4100 1650 c-20 -12 -9 -21 18 -13 12 3 19 9 16 14 -7 11 -15 11 -34
-1z"/>
<path d="M5783 1645 c-7 -20 -3 -24 27 -27 32 -4 36 16 5 30 -21 10 -27 9 -32
-3z"/>
<path d="M2575 1640 c-9 -14 2 -25 33 -35 18 -5 22 -2 22 14 0 12 -4 21 -9 21
-5 0 -16 3 -24 6 -8 3 -18 0 -22 -6z"/>
<path d="M7193 1630 c-30 -12 -20 -43 11 -34 29 9 40 20 32 33 -8 13 -13 13
-43 1z"/>
<path d="M1444 1596 c-12 -10 -16 -18 -9 -24 14 -14 55 4 55 23 0 19 -20 19
-46 1z"/>
<path d="M2696 1594 c-6 -16 39 -39 55 -28 16 10 10 19 -20 31 -24 9 -31 8
-35 -3z"/>
<path d="M3983 1598 c-26 -13 -30 -26 -9 -34 21 -8 56 14 50 31 -7 17 -11 18
-41 3z"/>
<path d="M5900 1590 c0 -11 3 -20 8 -20 4 0 17 -3 30 -6 32 -9 29 20 -3 34
-34 16 -35 15 -35 -8z"/>
<path d="M7073 1590 c-39 -16 -25 -44 15 -33 13 3 22 13 22 24 0 21 -4 22 -37
9z"/>
<path d="M1333 1547 c-25 -11 -29 -22 -13 -32 15 -9 50 4 50 20 0 20 -12 24
-37 12z"/>
<path d="M2820 1546 c0 -14 21 -26 46 -26 19 0 18 26 -2 34 -26 10 -44 7 -44
-8z"/>
<path d="M6020 1546 c0 -14 48 -32 57 -22 3 3 3 12 0 21 -8 19 -57 20 -57 1z"/>
<path d="M6938 1552 c-12 -5 -14 -12 -9 -21 11 -18 61 -6 61 14 0 16 -23 18
-52 7z"/>
<path d="M3868 1543 c-20 -5 -24 -23 -5 -23 17 0 41 17 31 22 -5 2 -17 3 -26
1z"/>
<path d="M6153 1518 c2 -13 47 -31 55 -23 3 2 2 11 -1 20 -8 18 -58 21 -54 3z"/>
<path d="M6800 1509 c0 -15 4 -19 16 -15 9 3 22 6 30 6 8 0 14 7 14 15 0 10
-10 15 -30 15 -24 0 -30 -4 -30 -21z"/>
<path d="M2945 1510 c-3 -6 6 -15 21 -20 27 -11 50 3 38 22 -7 11 -52 10 -59
-2z"/>
<path d="M3738 1503 c-10 -2 -18 -9 -18 -15 0 -6 10 -8 23 -4 12 3 26 6 30 6
5 0 5 5 2 10 -6 10 -9 11 -37 3z"/>
<path d="M6280 1495 c0 -10 10 -15 30 -15 20 0 30 5 30 15 0 10 -10 15 -30 15
-20 0 -30 -5 -30 -15z"/>
<path d="M6670 1495 c0 -10 10 -15 30 -15 20 0 30 5 30 15 0 10 -10 15 -30 15
-20 0 -30 -5 -30 -15z"/>
<path d="M6410 1485 c0 -10 10 -15 30 -15 20 0 30 5 30 15 0 10 -10 15 -30 15
-20 0 -30 -5 -30 -15z"/>
<path d="M6540 1485 c0 -10 10 -15 30 -15 20 0 30 5 30 15 0 10 -10 15 -30 15
-20 0 -30 -5 -30 -15z"/>
<path d="M1210 1475 c-20 -24 1 -38 28 -19 23 16 21 34 -2 34 -8 0 -19 -7 -26
-15z"/>
<path d="M3070 1475 c0 -10 10 -15 30 -15 20 0 30 5 30 15 0 10 -10 15 -30 15
-20 0 -30 -5 -30 -15z"/>
<path d="M3597 1483 c-15 -14 -6 -23 23 -23 20 0 30 5 30 15 0 15 -40 21 -53
8z"/>
<path d="M3207 1474 c-17 -17 -5 -34 24 -34 24 0 30 4 27 18 -3 17 -38 29 -51
16z"/>
<path d="M3330 1455 c0 -10 10 -15 30 -15 20 0 30 5 30 15 0 10 -10 15 -30 15
-20 0 -30 -5 -30 -15z"/>
<path d="M3480 1460 c-8 -5 -12 -12 -9 -15 8 -8 39 5 39 16 0 11 -11 11 -30
-1z"/>
<path d="M1109 1412 c-26 -17 -29 -42 -5 -42 19 0 46 34 38 47 -6 9 -14 8 -33
-5z"/>
<path d="M1002 1333 c-16 -13 -19 -22 -12 -33 8 -13 13 -12 32 7 30 30 12 53
-20 26z"/>
<path d="M900 1250 c-20 -15 -23 -21 -12 -32 10 -10 16 -8 34 10 30 30 12 48
-22 22z"/>
<path d="M780 1176 c-18 -22 -5 -48 22 -44 17 2 23 10 23 28 0 29 -26 38 -45
16z"/>
</g>
</svg>
